<svg id="Capa_1" enable-background="new 0 0 512 512" height="512" viewBox="0 0 512 512" width="512" xmlns="http://www.w3.org/2000/svg"><g><g><path d="m468.455 160.708c1.691-8.576 2.545-17.185 2.545-25.708 0-74.439-60.561-135-135-135-47.948 0-92.023 25.58-116.13 66.298-10.8-4.145-22.284-6.298-33.87-6.298-47.601 0-87.137 35.193-93.96 80.924-51.322 6.847-91.04 50.91-91.04 104.076 0 57.897 47.103 105 105 105h90v-123c0-24.813 20.187-45 45-45h30c24.813 0 45 20.187 45 45v123h90c57.897 0 105-47.103 105-105 0-33.248-16.058-64.614-42.545-84.292z"/></g><path d="m324.199 409.443c-2.814-4.382-7.818-6.865-13.026-6.865h-25.173v-175.578c0-8.284-6.716-15-15-15h-30c-8.284 0-15 6.716-15 15v175.579h-25.173c-5.208 0-10.212 2.482-13.026 6.865-3.338 5.199-3.169 11.759.315 16.737l55.596 79.423c2.805 4.005 7.398 6.396 12.288 6.396s9.483-2.391 12.289-6.398l55.595-79.422c3.483-4.977 3.653-11.538.315-16.737z"/></g></svg>