<?xml version="1.0" encoding="utf-8"?>
<!-- Generator: Adobe Illustrator 24.1.3, SVG Export Plug-In . SVG Version: 6.00 Build 0)  -->
<svg version="1.1" id="Calque_1" xmlns="http://www.w3.org/2000/svg" xmlns:xlink="http://www.w3.org/1999/xlink" x="0px" y="0px"
	 viewBox="0 0 600 1000" style="enable-background:new 0 0 600 1000;" xml:space="preserve">
<style type="text/css">
	.st0{fill:none;}
</style>
<path id="SVGID_x5F_1_x5F_" class="st0" d="M114.05,37.23c113.88-4.95,233.47-8.77,335.45,42.18
	c28.72,14.35,58.03,37.09,60.84,69.07c1.45,16.5-4.67,32.87-13.37,46.96c-12.85,20.8-31.6,37.9-53.48,48.8
	c-42.88,21.34-93.73,17.88-140.85,9.28c-47.12-8.61-94.24-21.91-142.03-18.62c-35.54,2.45-75.16,19.02-84.73,53.34
	c-9.62,34.48,15.55,68.79,42.6,92.24c46.96,40.71,104.86,68.69,165.94,80.17c49.86,9.38,102.83,8.33,148.44,30.56
	c19.16,9.34,37.52,24.28,42.37,45.04c6.26,26.75-12.74,54.2-37.05,67.02c-24.3,12.82-52.71,14.53-80.12,16.44
	c-27.41,1.91-118.73,59.48-121.03,86.94c0,0-62.02,77.37-104.02,28.37s-175-15-80,35s281,213,281,213"/>
<text><textPath  xlink:href="#SVGID_x5F_1_x5F_" startOffset="0.4812%">
<tspan  style="fill:#8CC63F; font-family:'MyriadPro-Regular'; font-size:17px;">2010 à 2012: Platrier aux compagnons du devoir (CAP en alternance) -</tspan><tspan  style="font-family:'MyriadPro-Regular'; font-size:17px;"> </tspan><tspan  style="fill:#39B54A; font-family:'MyriadPro-Regular'; font-size:17px;">2012 à 2015: Technicien Grand Public à Orange (BAC Pro S.E.N en alternance) - </tspan><tspan  style="fill:#009245; font-family:'MyriadPro-Regular'; font-size:17px;">2015 à 2018: Technicien PABX à Orange </tspan><tspan  style="fill:#006837; font-family:'MyriadPro-Regular'; font-size:17px;">- 2018: DUT Résaux et Télécommunications en VAE -</tspan><tspan  style="font-family:'MyriadPro-Regular'; font-size:17px;"> </tspan><tspan  style="fill:#22B573; font-family:'MyriadPro-Regular'; font-size:17px;">2018 à 2019: Expert Souritien Qualité Méthodes et données du SI à Orange</tspan></textPath>
</text>
<path class="st0" d="M341,904"/>
</svg>
